<?xml version="1.0" encoding="UTF-8" standalone="no"?><svg viewBox="0 0 800 800" xmlns="http://www.w3.org/2000/svg" xmlns:xlink="http://www.w3.org/1999/xlink"><style>:root>svg{display:none}:root>svg:target{display:block}</style><svg viewBox="0 0 64 64" id="cld-cloud-network-folder-svgrepo-com" xmlns="http://www.w3.org/2000/svg"><g fill="none" fill-rule="evenodd"><path d="M13 15h38v-1a3 3 0 0 0-3-3H30c-5 0-3-4-8-4H12a3 3 0 0 0-3 3v28a3 3 0 0 0 3 3h1V15Z" fill="#D5C35B"/><path d="M13 41h39a3 3 0 0 0 3-3V15H13v26Z" fill="#F3E777"/><path fill="#87D6CD" d="M31 49h4v-8h-4zM39 55h20v-4H39zM5 55h22v-4H5z"/><path fill="#7BBDEC" d="M27 57h12v-8H27z"/><path d="M37.148 23.573C36.344 22.047 34.69 21 32.778 21c-2.7 0-4.89 2.09-4.89 4.667-2.7 0-4.888 2.09-4.888 4.666C23 32.911 25.188 35 27.888 35h11C42.263 35 45 32.388 45 29.167c0-3.222-2.737-5.834-6.112-5.834-.604 0-1.189.084-1.74.24Z" fill="#87D6CD"/><path d="M31 49v-8M35 49v-8M39 51h20M39 55h20M27 51H5M5 55h22M27 57h12v-8H27zM37.148 23.573C36.344 22.047 34.69 21 32.778 21c-2.7 0-4.89 2.09-4.89 4.667-2.7 0-4.888 2.09-4.888 4.666C23 32.911 25.188 35 27.888 35h11C42.263 35 45 32.388 45 29.167c0-3.222-2.737-5.834-6.112-5.834-.604 0-1.189.084-1.74.24h0Z" stroke="#414547" stroke-width="2" stroke-linecap="round" stroke-linejoin="round"/><path d="M51 15v-1a3 3 0 0 0-3-3H30c-5 0-3-4-8-4H12a3 3 0 0 0-3 3v28a3 3 0 0 0 3 3h1" stroke="#414547" stroke-width="2" stroke-linecap="round" stroke-linejoin="round"/><path d="M13 41h39a3 3 0 0 0 3-3V15H13v26" stroke="#414547" stroke-width="2" stroke-linecap="round" stroke-linejoin="round"/></g></svg><svg viewBox="0 0 64 64" id="cld-cloud-phone-svgrepo-com" xmlns="http://www.w3.org/2000/svg"><g fill="none" fill-rule="evenodd"><path d="M53.1 16.677c.08-.511.123-1.033.123-1.565C53.223 9.527 48.696 5 43.112 5c-4.578 0-8.445 3.04-9.691 7.214a5.417 5.417 0 0 0-9.007 4.91A7.246 7.246 0 0 0 20.554 21H24a3 3 0 0 1 3 3v6.996c.075.003.148.004.223.004h24.555A7.221 7.221 0 0 0 53.1 16.677" fill="#87D6CD"/><path fill="#99A5B7" d="M5 51h22V29H5z"/><path d="M24 21H8a3 3 0 0 0-3 3v5h22v-5a3 3 0 0 0-3-3M5 51v5a3 3 0 0 0 3 3h16a3 3 0 0 0 3-3v-5H5Z" fill="#E9EFFA"/><path d="M27 30.997c.073.002.147.003.223.003h24.554a7.222 7.222 0 0 0 1.324-14.323c.08-.51.122-1.034.122-1.566 0-5.585-4.528-10.11-10.112-10.11-4.577 0-8.444 3.04-9.69 7.213a5.417 5.417 0 0 0-9.008 4.91A7.25 7.25 0 0 0 20.554 21M21 25h-6M11 25h0M15 55h2" stroke="#414547" stroke-width="2" stroke-linecap="round" stroke-linejoin="round"/><path d="M27 29v-5a3 3 0 0 0-3-3H8a3 3 0 0 0-3 3v5M5 51.001V56a3 3 0 0 0 3 3h16a3 3 0 0 0 3-3v-4.999M27 51H5M27 29H5M27 51.001V29M5 29v22.001" stroke="#414547" stroke-width="2" stroke-linecap="round" stroke-linejoin="round"/></g></svg><svg viewBox="0 0 64 64" id="com-keyboard-svgrepo-com" xmlns="http://www.w3.org/2000/svg"><g fill="none" fill-rule="evenodd"><path fill="#F1F0E2" d="M5 59h52V31H5z"/><path fill="#D2D0BB" d="M9 55h4v-4H9zM17 55h28v-4H17zM9 47h4v-4H9zM9 39h4v-4H9zM17 47h4v-4h-4zM17 39h4v-4h-4zM25 47h4v-4h-4zM25 39h4v-4h-4zM33 47h4v-4h-4zM33 39h4v-4h-4zM41 47h4v-4h-4zM41 39h4v-4h-4zM49 47h4v-4h-4zM49 55h4v-4h-4zM49 39h4v-4h-4z"/><path d="M19 5a6 6 0 0 0 6 6h18a6 6 0 0 1 0 12h-6a6 6 0 0 0-6 6v2M5 59h52V31H5z" stroke="#414547" stroke-width="2" stroke-linecap="round" stroke-linejoin="round"/><path stroke="#414547" stroke-width="2" stroke-linecap="round" stroke-linejoin="round" d="M9 55h4v-4H9zM17 55h28v-4H17zM9 47h4v-4H9zM9 39h4v-4H9zM17 47h4v-4h-4zM17 39h4v-4h-4zM25 47h4v-4h-4zM25 39h4v-4h-4zM33 47h4v-4h-4zM33 39h4v-4h-4zM41 47h4v-4h-4zM41 39h4v-4h-4zM49 47h4v-4h-4zM49 55h4v-4h-4zM49 39h4v-4h-4z"/></g></svg><svg viewBox="0 0 64 64" id="com-laptop-code-svgrepo-com" xmlns="http://www.w3.org/2000/svg"><g fill="none" fill-rule="evenodd"><path d="M52 13H10a3 3 0 0 0-3 3v29h48V16a3 3 0 0 0-3-3" fill="#E9EFFA"/><path d="M59 45v3a3 3 0 0 1-3 3H6a3 3 0 0 1-3-3v-3h56Z" fill="#C0CCDB"/><path fill="#B6E0F2" d="M11 41h40V17H11z"/><path d="M55 45V16a3 3 0 0 0-3-3H10a3 3 0 0 0-3 3v29M59 45v3a3 3 0 0 1-3 3H6a3 3 0 0 1-3-3v-3h56Z" stroke="#414547" stroke-width="2" stroke-linecap="round" stroke-linejoin="round"/><path stroke="#414547" stroke-width="2" stroke-linecap="round" stroke-linejoin="round" d="M11 41h40V17H11z"/><path stroke="#414547" stroke-width="2" stroke-linecap="round" stroke-linejoin="round" d="m25 24-6 5 6 5M37 24l6 5-6 5M29 37l4-16"/></g></svg><svg viewBox="0 0 64 64" id="con-circular-saw-svgrepo-com" xmlns="http://www.w3.org/2000/svg"><g fill="none" fill-rule="evenodd"><path d="M32 51c-10.494 0-19-8.507-19-19 0-10.494 8.506-19 19-19s19 8.506 19 19c0 10.493-8.506 19-19 19m23.325-15.244L59 33v-8l-2.822 2.116s-1.991 1.312-2.473-.647c-.301-1.219.373-2.879.373-2.879l1.805-4.224-4-6.929h-.001l-1.386 3.245s-1.068 2.13-2.465.675c-.87-.906-1.116-2.679-1.116-2.679l-.549-4.561-6.929-4 .422 3.502S40 11 38.062 10.437c-1.205-.349-2.306-1.763-2.306-1.763L33 5h-8l2.116 2.822s1.313 1.99-.647 2.473c-1.218.299-2.879-.373-2.879-.373l-4.224-1.805-6.928 4 3.244 1.385s2.132 1.068.675 2.467c-.904.867-2.679 1.115-2.679 1.115l-4.561.549-3.999 6.928-.001.002 3.502-.422S11 24 10.438 25.938c-.35 1.205-1.763 2.306-1.763 2.306L5 31v8l2.822-2.116s1.991-1.313 2.473.647c.3 1.219-.373 2.879-.373 2.879l-1.805 4.224 4 6.928 1.386-3.244s1.068-2.132 2.466-.675c.868.904 1.116 2.679 1.116 2.679l.549 4.561 6.928 3.999.001.001-.422-3.502S24 53 25.938 53.563c1.206.349 2.306 1.762 2.306 1.762L31 59h8.001l-2.117-2.822s-1.312-1.992.647-2.473c1.22-.301 2.879.373 2.879.373l4.224 1.805 6.928-4 .001-.002-3.245-1.385s-2.13-1.068-.675-2.465c.906-.871 2.679-1.117 2.679-1.117l4.561-.549 4-6.928-3.502.422S53 40 53.562 38.062c.35-1.207 1.763-2.306 1.763-2.306" fill="#5D94C7"/><path d="M32 37a5 5 0 0 1-5-5 5 5 0 0 1 5-5 5 5 0 0 1 5 5 5 5 0 0 1-5 5m0-24c-10.494 0-19 8.506-19 19 0 10.493 8.506 19 19 19s19-8.507 19-19c0-10.494-8.506-19-19-19" fill="#7BBDEC"/><path d="M51 32c0 10.493-8.506 19-19 19s-19-8.507-19-19c0-10.494 8.506-19 19-19s19 8.506 19 19Z" stroke="#414547" stroke-width="2" stroke-linecap="round" stroke-linejoin="round"/><path d="m58.883 39.438-4 6.927-4.561.55s-1.773.245-2.68 1.117c-1.454 1.396.677 2.465.677 2.465l3.245 1.383-.001.002-6.93 4-4.223-1.803s-1.66-.675-2.88-.373c-1.958.48-.646 2.471-.646 2.471L39 59H31l-2.756-3.674s-1.1-1.413-2.306-1.763c-1.938-.561-1.797 1.819-1.797 1.819l.422 3.502-.001-.002-6.928-3.998-.55-4.56s-.247-1.776-1.115-2.68c-1.398-1.458-2.466.675-2.466.675l-1.386 3.244-4-6.928 1.805-4.224s.673-1.66.373-2.878c-.481-1.96-2.473-.648-2.473-.648L5 39V31l3.675-2.756s1.413-1.102 1.763-2.306C11 24 8.618 24.14 8.618 24.14l-3.501.422v-.002l4-6.928 4.56-.55s1.776-.247 2.68-1.114c1.458-1.399-.675-2.467-.675-2.467l-3.243-1.385 6.927-4 4.224 1.804s1.66.672 2.879.373c1.96-.482.647-2.472.647-2.472L25 5h8l2.756 3.674s1.102 1.414 2.307 1.764C40 11 39.86 8.619 39.86 8.619l-.422-3.502 6.928 4 .549 4.56s.246 1.774 1.116 2.68c1.397 1.456 2.465-.675 2.465-.675l1.386-3.246v.002l4 6.929-1.804 4.223s-.674 1.66-.373 2.878c.482 1.96 2.473.648 2.473.648L59 25v8l-3.675 2.755s-1.413 1.1-1.762 2.307C53 40 55.38 39.86 55.38 39.86l3.502-.422Z" stroke="#414547" stroke-width="2" stroke-linecap="round" stroke-linejoin="round"/><path d="M37 32a5 5 0 0 1-5 5 5 5 0 0 1-5-5 5 5 0 0 1 5-5 5 5 0 0 1 5 5Z" stroke="#414547" stroke-width="2" stroke-linecap="round" stroke-linejoin="round"/></g></svg><svg viewBox="0 0 64 64" id="des-palette-svgrepo-com" xmlns="http://www.w3.org/2000/svg"><g fill="none" fill-rule="evenodd"><path d="M15 49a4 4 0 1 1 0-8 4 4 0 0 1 0 8M29 9C14 9 5 20 5 35c0 12 4 22 13 22 10 0 1-19 10-19s8 14 22 14c5 0 9-3 9-12C59 21 45 9 29 9" fill="#CCA972"/><path d="M25 21c0 2.209-1.343 4-3 4s-3-1.791-3-4 1.343-4 3-4 3 1.791 3 4" fill="#7BBDEC"/><path d="M36.558 19.93c-.864 2.148-2.711 3.473-4.124 2.96-1.412-.513-1.857-2.672-.991-4.82.864-2.148 2.71-3.472 4.124-2.96 1.413.515 1.857 2.673.99 4.82" fill="#F16963"/><path d="M52.928 42.321c-.51 2.084-3.575 3.183-6.851 2.453-3.273-.729-5.514-3.01-5.004-5.095.508-2.085 3.575-3.183 6.85-2.454 3.274.73 5.515 3.011 5.005 5.096" fill="#93C98D"/><path d="M48.748 24.2c.863 1.48-.562 4.01-3.185 5.65-2.621 1.638-5.447 1.767-6.311.286-.863-1.48.562-4.01 3.184-5.65 2.622-1.639 5.448-1.767 6.312-.287" fill="#F3E777"/><path d="M25 21c0 2.209-1.343 4-3 4s-3-1.791-3-4 1.343-4 3-4 3 1.791 3 4ZM19 45a4 4 0 1 1-8 0 4 4 0 0 1 8 0ZM36.558 19.93c-.864 2.148-2.711 3.473-4.124 2.96-1.412-.513-1.857-2.672-.991-4.82.864-2.148 2.71-3.472 4.124-2.96 1.413.515 1.857 2.673.99 4.82ZM52.928 42.321c-.51 2.084-3.575 3.183-6.851 2.453-3.273-.729-5.514-3.01-5.004-5.095.508-2.085 3.575-3.183 6.85-2.454 3.274.73 5.515 3.011 5.005 5.096ZM48.748 24.2c.863 1.48-.562 4.01-3.185 5.65-2.621 1.638-5.447 1.767-6.311.286-.863-1.48.562-4.01 3.184-5.65 2.622-1.639 5.448-1.767 6.312-.287Z" stroke="#414547" stroke-width="2" stroke-linecap="round" stroke-linejoin="round"/><path d="M29 9C14 9 5 20 5 35c0 12 4 22 13 22 10 0 1-19 10-19s8 14 22 14c5 0 9-3 9-12C59 21 45 9 29 9Z" stroke="#414547" stroke-width="2" stroke-linecap="round" stroke-linejoin="round"/></g></svg><svg viewBox="0 0 64 64" id="gen-heart-rate-svgrepo-com" xmlns="http://www.w3.org/2000/svg"><g fill="none" fill-rule="evenodd"><path d="m31 17 2.101-1.9c5.466-5.466 14.332-5.466 19.798 0 5.468 5.469 5.467 14.333 0 19.798L31 57 9.101 34.9c-5.467-5.466-5.468-14.33 0-19.799 5.466-5.466 14.332-5.466 19.798 0L31 17Z" fill="#F16963"/><path d="m31 17 2.101-1.9c5.466-5.466 14.332-5.466 19.798 0 5.468 5.469 5.467 14.333 0 19.798L31 57 9.101 34.9c-5.467-5.466-5.468-14.33 0-19.799 5.466-5.466 14.332-5.466 19.798 0L31 17Z" stroke="#414547" stroke-width="2" stroke-linecap="round" stroke-linejoin="round"/><path stroke="#414547" stroke-width="2" stroke-linecap="round" stroke-linejoin="round" d="M21 35h7l3-12 5 22 4-14 2 4h15"/></g></svg></svg>